<?xml version="1.0" standalone="no"?>
<!DOCTYPE svg PUBLIC "-//W3C//DTD SVG 20010904//EN"
 "http://www.w3.org/TR/2001/REC-SVG-20010904/DTD/svg10.dtd">
<svg version="1.0" xmlns="http://www.w3.org/2000/svg"
 width="1124.000000pt" height="1124.000000pt" viewBox="0 0 1124.000000 1124.000000"
 preserveAspectRatio="xMidYMid meet">
<metadata>
Created by potrace 1.14, written by Peter Selinger 2001-2017
</metadata>
<g transform="translate(0.000000,1124.000000) scale(0.100000,-0.100000)"
fill="#000000" stroke="none">
<path d="M1055 6941 c2 -2 -2 -18 -10 -36 -7 -19 -11 -36 -7 -39 3 -3 0 -6 -6
-6 -6 0 -9 -9 -7 -20 2 -11 0 -18 -4 -15 -11 6 -23 -23 -15 -36 3 -5 0 -9 -6
-9 -6 0 -8 -4 -5 -10 3 -5 2 -10 -4 -10 -5 0 -8 -9 -6 -20 2 -11 0 -18 -6 -15
-5 4 -9 -3 -9 -14 0 -11 -4 -22 -10 -26 -5 -3 -6 -13 -3 -22 4 -10 2 -14 -4
-10 -6 4 -13 -2 -16 -13 -3 -13 -1 -18 6 -13 7 3 5 -2 -4 -13 -9 -10 -15 -27
-14 -37 2 -9 -1 -15 -6 -11 -8 5 -13 -9 -10 -28 0 -5 -4 -8 -10 -8 -6 0 -9 -7
-5 -15 3 -8 1 -15 -4 -15 -6 0 -9 -3 -8 -7 1 -5 -4 -19 -11 -32 -9 -16 -9 -21
-1 -16 6 4 1 -10 -13 -31 -13 -22 -22 -45 -20 -51 3 -7 0 -13 -7 -13 -6 0 -10
-6 -8 -12 1 -7 -6 -28 -16 -46 -9 -19 -15 -36 -12 -40 3 -3 -1 -14 -11 -24 -9
-10 -13 -18 -8 -18 4 0 2 -7 -5 -15 -7 -8 -9 -15 -4 -15 5 0 3 -4 -4 -9 -7 -4
-14 -18 -15 -29 -1 -12 -5 -22 -10 -22 -4 0 -6 -4 -2 -9 3 -5 0 -13 -6 -16 -5
-4 -8 -13 -5 -20 2 -7 -2 -16 -11 -19 -8 -4 -13 -13 -9 -21 3 -8 1 -17 -5 -21
-6 -3 -8 -13 -5 -21 4 -9 2 -11 -5 -7 -7 4 -10 1 -7 -7 3 -8 -2 -20 -11 -27
-12 -10 -13 -12 -1 -6 12 7 13 5 3 -8 -7 -8 -10 -18 -6 -21 3 -4 1 -7 -6 -7
-8 0 -11 -6 -7 -16 3 -8 2 -13 -3 -10 -11 7 -23 -22 -15 -35 3 -5 1 -9 -5 -9
-5 0 -8 -9 -6 -20 2 -11 0 -18 -4 -16 -4 3 -13 -6 -20 -20 -9 -20 -9 -24 1
-18 10 6 11 5 1 -8 -7 -8 -10 -18 -6 -21 3 -4 1 -7 -6 -7 -8 0 -11 -7 -7 -15
3 -9 -1 -18 -10 -22 -8 -3 -13 -12 -10 -19 3 -7 1 -16 -5 -19 -5 -4 -7 -11 -4
-16 4 -5 1 -9 -5 -9 -6 0 -8 -4 -5 -10 3 -5 2 -10 -3 -10 -9 0 -26 -53 -25
-77 0 -7 -3 -11 -7 -8 -10 6 -22 -24 -14 -36 3 -5 0 -9 -5 -9 -6 0 -10 -3 -9
-7 1 -5 -3 -18 -10 -31 -7 -12 -10 -28 -6 -34 4 -7 3 -8 -4 -4 -8 5 -12 0 -12
-14 0 -11 -8 -33 -17 -47 -14 -21 -15 -25 -3 -18 11 6 10 3 -3 -12 -9 -11 -14
-23 -10 -26 3 -4 1 -7 -5 -7 -6 0 -9 -9 -7 -20 2 -11 0 -18 -4 -15 -5 3 -12
-2 -15 -11 -3 -8 -2 -12 4 -9 5 3 -3 -16 -17 -41 -15 -26 -20 -44 -13 -39 8 5
4 -6 -9 -23 -12 -18 -23 -41 -24 -52 -1 -11 -6 -20 -11 -20 -5 0 -6 -3 -3 -6
4 -4 -1 -21 -10 -38 -35 -68 -35 -69 -21 -60 10 6 11 5 1 -8 -7 -8 -9 -19 -5
-23 4 -5 1 -5 -6 -1 -12 7 -15 0 -15 -36 0 -10 -3 -15 -7 -13 -4 3 -11 -2 -14
-11 -4 -9 -2 -13 5 -8 6 3 4 -5 -5 -18 -9 -14 -13 -28 -9 -31 3 -4 0 -7 -7 -7
-7 0 -10 -3 -7 -7 4 -3 0 -17 -8 -30 -9 -13 -13 -29 -9 -35 5 -7 3 -8 -6 -3
-10 6 -12 4 -7 -8 3 -9 -1 -23 -9 -32 -8 -8 -13 -19 -9 -24 3 -5 0 -13 -6 -16
-5 -4 -8 -13 -5 -21 3 -8 2 -13 -2 -11 -4 1 -7 -1 -7 -4 0 -3 -6 -13 -14 -23
-8 -9 -11 -19 -8 -22 3 -3 -3 -22 -14 -41 -11 -19 -14 -31 -7 -27 7 4 4 -3 -7
-15 -11 -13 -20 -26 -19 -30 0 -3 -1 -13 -3 -21 -2 -8 -5 -19 -5 -25 -1 -5 -8
-16 -15 -23 -7 -8 -11 -17 -8 -22 3 -5 1 -11 -5 -15 -6 -4 -8 -11 -5 -16 4 -5
1 -9 -5 -9 -6 0 -10 -6 -8 -12 1 -7 -3 -22 -9 -33 -11 -20 -8 -20 380 -19 460
2 421 0 413 19 -3 8 -2 15 2 15 4 0 8 10 9 22 1 11 8 25 15 29 7 4 9 11 6 14
-4 4 2 23 13 42 11 19 14 31 7 27 -10 -6 -11 -5 -1 8 7 8 10 18 6 21 -3 4 -1
7 6 7 7 0 11 6 9 12 -3 7 1 19 9 26 7 8 11 18 8 23 -4 5 -2 9 3 9 5 0 9 6 10
13 2 28 9 46 22 63 10 11 10 15 2 10 -7 -4 -3 9 8 28 11 20 17 36 13 36 -4 0
-2 5 4 11 6 6 9 18 6 27 -4 10 -2 13 5 8 7 -4 12 -3 12 1 0 5 189 8 419 8 231
0 417 -3 415 -7 -3 -5 0 -8 6 -8 7 0 9 -8 5 -21 -4 -13 -3 -19 2 -16 5 3 9 -4
8 -16 -1 -12 0 -26 4 -32 3 -5 6 -23 7 -40 1 -16 3 -32 4 -35 2 -3 4 -9 5 -15
2 -5 4 -12 5 -15 1 -3 4 -16 6 -30 2 -14 6 -41 9 -60 3 -19 6 -42 6 -50 1 -8
7 -21 13 -29 9 -12 8 -13 -4 -6 -13 7 -13 6 0 -11 9 -10 16 -35 15 -54 l0 -35
400 1 c339 1 399 3 396 15 -2 8 -4 23 -6 34 -1 11 -4 22 -5 25 -1 3 -3 10 -4
15 -1 6 -6 28 -11 50 -5 22 -10 49 -11 60 -1 11 -3 20 -4 20 -1 0 -3 7 -5 15
-12 54 -17 79 -22 105 -3 17 -9 37 -14 46 -4 9 -6 19 -3 22 3 3 2 12 -2 19 -5
7 -8 23 -9 35 0 12 -3 24 -7 28 -4 4 -4 13 -2 20 3 7 0 16 -5 20 -6 3 -9 11
-6 16 4 5 3 15 -1 21 -5 7 -9 19 -11 28 -1 8 -5 31 -8 50 -3 19 -7 45 -7 58
-1 12 -5 22 -8 22 -7 0 -9 11 -12 60 -1 17 -5 30 -9 30 -4 0 -6 9 -4 20 2 11
1 20 -3 20 -4 0 -8 8 -9 18 -1 20 -11 87 -13 87 -1 0 -3 8 -6 18 -2 9 -6 25
-8 35 -3 9 -5 17 -6 17 -1 0 -3 14 -6 30 -7 49 -9 59 -15 70 -3 6 -5 22 -4 37
1 16 -2 25 -8 21 -6 -4 -8 0 -4 9 3 9 3 19 -1 22 -6 7 -10 23 -16 71 -3 17 -5
30 -6 30 -2 0 -9 34 -14 65 -2 14 -5 25 -6 25 -1 0 -4 14 -6 30 -3 17 -7 37
-11 45 -6 15 -13 50 -16 85 -2 11 -5 25 -9 30 -3 6 -4 18 -3 28 2 9 -1 17 -7
17 -6 0 -8 6 -5 14 3 8 3 17 -1 20 -7 7 -11 27 -15 68 -1 16 -6 28 -10 28 -5
0 -6 4 -3 8 3 5 -3 41 -14 80 -10 40 -19 76 -19 80 -2 16 -14 78 -18 97 -3 11
-6 28 -6 38 -1 9 -5 17 -9 17 -4 0 -5 9 -3 20 2 11 0 22 -4 24 -4 3 -8 21 -9
42 -2 20 -7 44 -11 53 -5 9 -7 24 -6 34 2 9 -1 17 -5 17 -5 0 -9 9 -9 20 -1
11 -1 29 -2 40 0 11 -3 20 -7 20 -4 0 -8 10 -8 23 -1 12 -4 31 -6 42 -3 11 -9
38 -13 60 -5 22 -10 45 -11 50 -8 28 -17 72 -18 88 0 9 -3 17 -7 17 -3 0 -5
11 -4 25 2 17 -2 25 -13 26 -44 4 -1060 4 -1057 0z m488 -785 c0 -15 3 -29 8
-32 4 -2 6 -11 2 -19 -3 -8 -2 -23 2 -32 5 -10 9 -22 10 -28 1 -5 5 -35 10
-65 5 -30 8 -58 7 -62 -1 -5 1 -8 6 -8 4 0 7 -12 8 -27 1 -16 11 -80 24 -143
12 -63 22 -121 23 -127 0 -7 4 -13 9 -13 5 0 6 -5 3 -10 -6 -9 9 -100 22 -140
3 -8 6 -28 8 -45 1 -16 5 -44 9 -62 3 -17 2 -34 -3 -37 -5 -3 -118 -7 -252 -8
-283 -3 -263 -13 -216 112 16 41 41 111 57 155 16 44 42 117 58 162 17 45 27
84 24 87 -3 3 -1 6 4 6 8 0 31 47 39 80 1 3 7 19 14 35 7 17 14 38 16 47 2 9
13 38 24 64 12 26 21 52 21 58 0 6 9 31 21 55 21 48 42 46 42 -3z"/>
<path d="M3325 6932 c-3 -8 -3 -18 1 -23 3 -5 1 -9 -5 -9 -5 0 -10 -28 -10
-62 0 -79 -4 -109 -15 -127 -7 -10 -6 -12 4 -6 10 6 11 4 4 -6 -8 -14 -13 -64
-17 -206 -1 -39 -5 -69 -8 -67 -7 4 -8 -8 -12 -113 -1 -29 -4 -53 -7 -53 -4 0
-6 -34 -6 -75 1 -41 -1 -75 -4 -75 -3 0 -5 -19 -5 -42 1 -24 -1 -47 -4 -53 -6
-11 -10 -56 -14 -177 -1 -43 -4 -78 -7 -78 -3 0 -6 -26 -7 -58 -3 -76 -9 -117
-18 -132 -6 -9 -4 -11 5 -5 10 6 11 4 4 -6 -5 -8 -10 -43 -11 -79 -1 -36 -2
-65 -3 -65 -2 0 -6 -56 -13 -172 0 -18 -4 -33 -7 -33 -4 0 -6 -27 -5 -60 0
-33 -2 -60 -5 -60 -3 0 -6 -30 -6 -66 1 -36 -2 -68 -5 -70 -3 -2 -5 -35 -4
-73 1 -39 -2 -68 -6 -65 -5 3 -9 -5 -9 -18 0 -33 -8 -173 -10 -173 -2 0 -7
-62 -13 -150 -2 -28 -5 -55 -8 -60 -3 -6 -5 -38 -5 -72 1 -35 -2 -63 -5 -63
-3 0 -6 -7 -6 -15 0 -8 3 -16 6 -16 23 -4 745 -3 752 2 5 3 11 32 14 65 3 32
8 84 10 114 6 67 14 164 20 245 2 33 7 83 10 110 3 28 8 77 11 110 2 33 6 87
9 120 2 33 6 86 9 117 2 32 8 64 14 71 8 9 95 12 386 12 207 0 376 2 376 5 0
3 18 6 40 8 64 3 80 6 80 13 0 4 8 6 18 4 9 -1 23 2 30 8 6 5 12 6 12 2 0 -4
7 -2 15 5 8 7 15 9 15 5 0 -4 7 -1 17 6 9 8 18 13 19 12 7 -5 119 49 122 58 2
5 8 7 13 3 5 -3 9 0 9 5 0 6 7 11 15 11 8 0 15 5 15 10 0 6 3 9 8 8 8 -3 24 9
67 50 13 12 28 22 32 22 11 0 45 40 35 40 -4 1 5 8 21 16 15 8 27 22 27 30 0
8 3 13 8 11 4 -3 13 1 20 9 7 8 10 14 5 14 -4 0 2 6 13 14 10 8 19 18 19 23 0
5 12 22 28 38 15 17 25 36 22 43 -2 6 0 12 5 12 6 0 10 7 10 15 0 8 4 15 9 15
10 0 35 58 34 78 0 6 3 12 7 12 6 0 31 68 31 85 0 2 6 22 13 42 7 21 12 46 10
56 -1 9 1 17 4 17 7 0 13 66 13 135 0 70 -6 135 -12 135 -3 0 -6 10 -5 23 1
12 -5 33 -14 47 -11 18 -11 22 -2 16 11 -7 12 -4 3 11 -6 11 -7 23 -4 27 3 3
1 6 -5 6 -7 0 -12 9 -12 20 0 11 -4 20 -10 20 -5 0 -6 7 -3 17 5 12 3 14 -7 8
-10 -6 -12 -4 -7 7 3 9 -3 25 -13 36 -10 11 -16 23 -12 27 4 3 -1 11 -11 16
-9 6 -15 14 -12 20 4 5 1 9 -5 9 -6 0 -8 5 -5 10 3 6 -1 10 -10 10 -9 0 -13 5
-10 10 3 6 1 10 -4 10 -6 0 -11 7 -11 15 0 8 -7 15 -15 15 -8 0 -15 6 -15 12
0 13 -68 78 -82 78 -4 0 -8 7 -8 16 0 10 -6 14 -15 10 -9 -3 -15 0 -15 10 0 8
-4 12 -10 9 -5 -3 -10 -1 -10 6 0 7 -3 9 -7 6 -3 -4 -17 3 -30 15 -13 12 -23
17 -23 12 0 -5 -4 -4 -8 3 -4 6 -14 13 -22 15 -8 2 -21 9 -28 16 -8 7 -18 10
-23 7 -5 -4 -9 -2 -9 3 0 5 -7 9 -15 10 -8 1 -22 3 -30 4 -8 1 -15 4 -15 8 0
4 -6 7 -12 8 -7 0 -23 3 -34 5 -12 3 -39 9 -60 13 -22 4 -384 7 -806 8 -635 1
-769 -1 -773 -12z m1290 -578 c55 -20 66 -27 98 -63 12 -14 30 -33 40 -43 9
-10 15 -18 12 -18 -2 0 2 -18 10 -39 14 -41 14 -149 -1 -186 -4 -11 -19 -38
-33 -60 -14 -22 -24 -44 -23 -48 1 -5 -2 -6 -8 -2 -5 3 -13 -1 -16 -9 -3 -8
-14 -18 -25 -21 -11 -4 -17 -11 -14 -16 4 -5 -1 -9 -9 -9 -8 0 -22 -7 -30 -16
-9 -8 -16 -13 -16 -9 0 3 -10 0 -22 -6 -26 -14 -114 -19 -382 -22 -192 -2
-222 3 -211 36 2 7 6 44 9 82 4 39 8 90 11 115 3 25 7 77 10 115 3 39 8 106
12 150 3 44 9 82 14 85 5 3 125 5 267 4 226 -1 264 -3 307 -20z"/>
<path d="M6012 6935 c-3 -5 -6 -39 -7 -75 -1 -36 -4 -70 -7 -75 -6 -11 -9 -58
-11 -147 -1 -32 -4 -58 -7 -58 -3 0 -5 -27 -5 -59 0 -33 -3 -57 -7 -55 -3 2
-5 -16 -3 -41 1 -25 -1 -45 -4 -45 -4 0 -8 -26 -9 -57 -2 -50 -9 -168 -14
-240 -1 -13 -4 -23 -7 -23 -4 0 -6 -35 -6 -78 0 -42 -2 -81 -5 -87 -3 -5 -6
-32 -7 -60 -3 -66 -11 -160 -13 -160 -2 0 -9 -83 -14 -175 -2 -36 -5 -65 -6
-65 -2 0 -4 -29 -6 -65 -2 -36 -6 -83 -9 -105 -3 -22 -8 -69 -10 -105 -13
-156 -16 -188 -21 -230 -3 -25 -6 -71 -6 -102 -1 -32 -5 -58 -8 -58 -4 0 -6
-31 -5 -70 0 -38 -2 -70 -6 -70 -3 0 -5 -20 -4 -45 1 -25 -1 -45 -5 -45 -3 0
-6 -21 -5 -47 1 -27 -1 -52 -4 -58 -3 -5 -6 -33 -7 -60 0 -28 -4 -57 -9 -64
-6 -10 -4 -12 6 -6 11 7 12 6 2 -6 -6 -8 -11 -23 -9 -34 3 -19 19 -20 962 -20
846 0 960 2 961 15 1 8 4 38 7 65 10 86 18 168 21 230 1 33 4 60 5 60 2 0 8
68 12 155 l3 45 -565 1 c-311 1 -571 2 -577 3 -12 1 -12 40 2 206 2 22 6 78
10 125 3 47 7 94 9 105 3 11 5 27 5 35 1 14 44 16 359 17 196 1 371 2 388 2
24 1 30 5 30 24 1 12 4 56 9 97 4 41 9 100 11 130 2 30 6 78 9 105 3 28 8 75
10 105 2 30 6 67 8 82 2 15 1 27 -2 26 -3 0 -10 1 -16 2 -5 1 -176 3 -380 4
l-369 1 -2 40 c-1 22 1 45 5 50 3 6 6 33 8 60 1 28 5 82 8 120 3 39 7 100 9
137 1 38 6 71 10 75 4 5 264 8 576 8 313 0 572 4 577 8 8 8 10 24 18 122 2 33
7 80 10 105 6 47 10 95 19 245 l6 90 -956 0 c-594 0 -958 -4 -962 -10z"/>
<path d="M8397 6938 c-9 -6 -9 -8 1 -8 6 0 12 -6 12 -13 0 -7 9 -23 20 -35 12
-12 18 -22 15 -22 -2 0 3 -9 13 -20 9 -12 16 -23 14 -26 -4 -6 22 -33 28 -29
3 2 7 -6 7 -17 1 -12 7 -26 14 -32 9 -8 10 -7 4 3 -5 10 -4 12 4 7 6 -4 9 -11
6 -16 -8 -13 25 -61 36 -54 5 3 6 -2 3 -10 -3 -9 -1 -16 5 -16 6 0 11 -7 11
-15 0 -8 5 -15 11 -15 5 0 8 -4 5 -8 -3 -5 7 -22 22 -38 15 -16 27 -36 27 -44
0 -8 5 -14 12 -13 7 2 10 -4 7 -12 -4 -8 -1 -15 4 -15 6 0 14 -9 17 -20 4 -11
11 -18 16 -15 5 3 6 -1 3 -9 -4 -11 0 -16 11 -16 9 0 13 -5 10 -10 -9 -14 23
-62 35 -55 6 3 7 0 4 -8 -3 -8 2 -20 10 -27 9 -7 13 -16 10 -21 -3 -5 0 -9 5
-9 6 0 11 -6 11 -14 0 -7 9 -20 21 -27 11 -8 22 -23 23 -34 2 -11 9 -19 14
-18 6 2 9 -4 6 -12 -4 -8 -2 -15 4 -15 5 0 12 -9 15 -21 3 -12 10 -18 17 -14
6 3 9 3 8 -2 -4 -14 13 -53 23 -53 5 0 9 -5 9 -11 0 -6 7 -17 15 -26 8 -8 13
-19 10 -24 -4 -5 -1 -9 4 -9 6 0 11 -7 11 -16 0 -8 5 -12 10 -9 6 3 10 -3 10
-14 0 -11 8 -24 18 -30 9 -5 17 -13 17 -18 0 -4 4 -7 9 -5 5 2 6 -4 3 -13 -4
-8 -3 -15 1 -15 4 0 13 -14 20 -30 8 -17 18 -27 24 -24 5 3 8 -1 6 -9 -2 -9 6
-23 17 -32 11 -9 13 -13 5 -9 -8 4 -5 -4 8 -18 12 -13 19 -28 15 -31 -3 -4 -1
-7 5 -7 7 0 12 -7 12 -15 0 -9 7 -18 15 -21 8 -4 12 -10 9 -15 -3 -5 0 -9 5
-9 6 0 11 -7 11 -16 0 -9 5 -12 12 -8 7 5 8 3 3 -6 -4 -7 -2 -16 6 -20 19 -13
18 -50 -3 -61 -10 -5 -18 -14 -18 -20 0 -6 -14 -24 -30 -41 -17 -16 -27 -34
-24 -40 4 -6 2 -8 -3 -5 -13 8 -37 -18 -29 -31 3 -5 -4 -18 -17 -28 l-22 -19
20 25 20 25 -22 -19 c-13 -11 -23 -23 -23 -29 0 -5 -11 -18 -25 -28 -15 -13
-22 -26 -18 -36 4 -10 2 -14 -5 -9 -6 3 -13 -3 -17 -14 -4 -11 -11 -18 -16
-15 -5 4 -9 -1 -9 -9 0 -8 -18 -33 -40 -56 -21 -22 -37 -40 -34 -40 4 0 -4
-10 -62 -72 -9 -9 -17 -23 -18 -32 -1 -8 -6 -19 -11 -23 -4 -5 -4 -1 0 7 5 8
-4 3 -19 -12 -17 -17 -25 -32 -20 -40 4 -7 4 -10 -1 -6 -11 10 -57 -41 -49
-54 4 -6 2 -8 -3 -5 -6 4 -19 -3 -29 -16 -19 -21 -19 -21 1 -7 11 8 -2 -6 -28
-33 -28 -27 -45 -52 -41 -59 4 -6 3 -8 -3 -5 -13 8 -37 -19 -29 -32 4 -5 1
-13 -5 -17 -8 -5 -9 -3 -4 7 4 8 -1 5 -12 -6 -11 -11 -19 -22 -17 -24 2 -2 -9
-15 -24 -29 -15 -13 -20 -21 -12 -16 8 4 -5 -11 -29 -33 -24 -23 -41 -46 -37
-52 4 -6 1 -11 -8 -11 -14 0 -32 -22 -36 -45 -1 -5 -4 -12 -7 -15 -4 -3 -3 1
2 9 6 10 4 12 -4 7 -7 -5 -10 -15 -7 -23 3 -8 2 -12 -3 -9 -12 7 -64 -50 -57
-62 4 -6 1 -14 -5 -18 -8 -5 -9 -3 -4 7 4 8 -1 5 -12 -6 -11 -11 -18 -27 -15
-35 3 -8 2 -12 -3 -8 -11 10 -46 -32 -38 -46 3 -6 3 -8 -1 -5 -11 10 -59 -38
-51 -51 3 -6 1 -9 -7 -8 -7 2 -12 -4 -10 -12 2 -8 0 -12 -4 -8 -10 11 -34 -11
-28 -25 3 -9 107 -12 412 -11 462 2 508 5 527 31 7 10 11 21 9 24 -2 4 3 9 11
13 8 3 15 13 15 21 0 9 5 13 10 10 6 -3 10 -1 10 4 0 13 87 133 103 143 6 4 8
10 4 14 -4 4 2 14 13 21 11 8 18 19 15 24 -4 5 1 9 9 9 9 0 15 4 14 8 -3 9 33
61 60 89 7 7 10 13 5 13 -4 1 3 10 16 20 13 11 20 20 15 20 -4 0 1 7 12 16 10
8 12 13 4 9 -8 -4 -3 5 12 18 15 14 24 28 21 31 -4 3 -1 6 5 6 9 0 25 31 27
52 0 3 4 10 9 15 6 5 6 2 1 -7 -8 -13 -6 -13 7 -2 10 8 14 20 11 29 -4 10 -2
14 4 10 12 -8 48 40 48 63 0 8 6 15 13 15 7 0 16 6 21 13 10 16 41 5 41 -14 0
-8 7 -17 15 -20 8 -4 12 -10 9 -15 -3 -5 0 -9 5 -9 6 0 11 -9 11 -21 0 -12 4
-17 11 -14 6 4 9 1 8 -6 -4 -19 33 -89 43 -83 4 3 5 -3 1 -12 -4 -10 -2 -15 3
-11 6 3 11 -4 11 -15 1 -11 10 -27 20 -35 10 -8 12 -11 5 -8 -11 6 -12 3 -2
-14 6 -12 16 -18 22 -15 7 5 9 1 5 -9 -3 -10 -2 -17 3 -17 5 0 10 -10 12 -22
2 -13 9 -22 15 -21 7 2 10 -6 8 -17 -2 -11 0 -20 6 -20 5 0 9 -5 9 -11 0 -7 8
-18 18 -26 9 -8 11 -12 5 -8 -8 4 -11 1 -7 -9 3 -8 12 -17 21 -20 8 -4 13 -13
9 -21 -3 -8 -1 -15 5 -15 6 0 8 -4 5 -9 -3 -5 0 -11 8 -14 7 -3 16 -19 19 -37
5 -21 11 -29 19 -24 8 5 9 2 5 -10 -4 -10 -1 -19 8 -22 7 -3 11 -12 8 -20 -3
-8 0 -14 6 -14 6 0 11 -7 11 -16 0 -8 4 -12 10 -9 6 4 7 -1 3 -11 -4 -12 -3
-15 5 -10 8 4 10 2 6 -7 -3 -8 1 -16 8 -19 22 -7 916 -3 924 5 4 4 2 7 -5 7
-7 0 -9 5 -6 10 3 6 -1 13 -9 16 -9 3 -13 10 -10 15 3 5 0 9 -7 9 -7 0 -9 3
-6 6 4 4 -3 15 -14 25 -11 9 -20 20 -20 23 0 3 -19 36 -42 73 -23 37 -41 72
-39 78 2 5 0 7 -4 3 -7 -8 -67 86 -62 98 2 3 -5 10 -14 15 -10 6 -18 17 -18
24 0 8 -5 15 -11 15 -5 0 -8 4 -5 8 3 5 -4 15 -15 22 -10 8 -19 23 -19 33 0
10 -4 16 -9 13 -5 -3 -12 1 -15 10 -4 10 -2 13 7 9 6 -4 1 3 -13 14 -14 11
-21 21 -17 21 5 0 1 7 -7 16 -9 8 -16 23 -16 31 0 9 -3 13 -7 9 -4 -3 -15 12
-25 34 -10 22 -23 40 -29 40 -6 0 -7 5 -4 10 3 6 1 10 -4 10 -6 0 -11 6 -11
14 0 7 -12 26 -27 41 -16 16 -22 25 -15 21 10 -6 -44 80 -76 119 -4 6 -15 26
-25 45 -9 19 -17 31 -17 25 -1 -5 -7 4 -16 20 -27 56 -41 75 -47 68 -4 -3 -7
0 -7 7 0 15 -60 113 -72 118 -5 2 -6 8 -2 13 3 5 1 9 -4 9 -5 0 -15 14 -22 30
-7 17 -16 30 -21 30 -5 0 -9 6 -9 14 0 7 -7 19 -15 26 -8 7 -12 16 -9 21 3 5
0 9 -5 9 -6 0 -11 7 -11 15 0 8 5 15 10 15 6 0 10 4 10 9 0 9 26 43 67 87 12
13 20 24 17 24 -2 0 10 16 28 36 18 20 32 40 30 45 -1 5 5 9 15 9 9 0 13 3 10
6 -4 4 8 20 26 35 17 16 28 29 23 29 -5 0 3 11 18 25 15 14 24 25 21 25 -3 0
4 10 15 23 66 70 110 123 110 131 0 5 11 19 24 31 14 13 23 25 20 28 -3 3 9
15 26 27 17 12 29 24 26 27 -3 3 10 19 27 35 18 17 25 27 17 23 -8 -4 -1 6 15
23 48 49 76 82 70 82 -3 0 11 17 31 38 19 20 42 49 50 65 8 15 17 27 20 27 3
0 2 -5 -2 -12 -4 -7 -3 -8 4 -4 7 4 12 13 12 20 0 7 11 23 25 36 13 12 22 26
20 31 -3 4 4 11 16 14 11 4 18 9 15 12 -2 3 6 15 19 28 14 12 22 25 18 28 -3
4 -1 7 5 7 6 0 18 12 26 28 8 15 15 23 16 18 0 -5 12 9 26 30 14 21 35 47 46
57 11 9 17 17 12 17 -4 0 -1 6 7 13 16 13 99 112 99 118 0 2 -210 4 -467 4
-448 0 -468 -1 -465 -19 2 -11 -1 -15 -7 -11 -6 3 -11 1 -11 -4 0 -6 -9 -20
-20 -31 -12 -12 -18 -25 -15 -31 4 -5 1 -8 -6 -7 -7 2 -13 -2 -14 -9 0 -7 -9
-19 -20 -27 -11 -8 -17 -17 -14 -21 4 -3 -4 -17 -18 -31 -13 -13 -21 -29 -17
-36 4 -7 3 -8 -4 -4 -7 4 -12 3 -12 -1 0 -5 -13 -23 -30 -41 -18 -21 -27 -38
-23 -49 4 -10 2 -14 -5 -9 -13 8 -64 -63 -55 -77 3 -6 1 -7 -5 -3 -7 4 -12 1
-12 -9 0 -9 -4 -13 -10 -10 -5 3 -10 -1 -10 -9 0 -9 -9 -25 -20 -36 -11 -11
-17 -20 -13 -20 4 0 -2 -6 -13 -14 -10 -8 -19 -18 -19 -23 0 -5 -10 -19 -22
-33 -13 -13 -23 -28 -23 -33 0 -6 -7 -15 -14 -21 -8 -6 -16 -17 -18 -25 -2 -7
-13 -24 -26 -37 -13 -13 -20 -29 -17 -34 4 -6 1 -9 -7 -8 -7 2 -12 -2 -11 -7
1 -6 -9 -11 -23 -11 -14 0 -24 6 -24 14 0 7 -4 10 -10 7 -6 -4 -7 1 -3 11 4
12 3 15 -5 10 -8 -5 -10 -2 -6 8 3 9 1 16 -5 16 -6 0 -11 6 -11 13 0 8 -9 22
-19 31 -11 10 -17 24 -14 32 3 8 -1 22 -9 32 -8 9 -25 37 -37 62 -12 25 -35
68 -52 95 -16 28 -32 57 -35 65 -4 8 -14 24 -23 34 -13 16 -13 18 -1 11 8 -4
4 4 -10 20 -14 16 -18 24 -10 20 11 -6 10 -3 -2 11 -10 11 -29 42 -44 69 -14
28 -41 78 -59 111 -19 34 -32 63 -30 65 7 8 -917 4 -928 -3z m-17 -2432 c0 -2
-8 -10 -17 -17 -16 -13 -17 -12 -4 4 13 16 21 21 21 13z"/>
</g>
</svg>
